<svg xmlns="http://www.w3.org/2000/svg" xmlns:xlink="http://www.w3.org/1999/xlink" width="300" zoomAndPan="magnify" viewBox="0 0 224.87999 74.999997" height="100" preserveAspectRatio="xMidYMid meet" version="1.0"><defs><g/><clipPath id="1c7e29eaf9"><path d="M 20.410156 28.359375 L 29.96875 28.359375 L 29.96875 46.535156 L 20.410156 46.535156 Z M 20.410156 28.359375 " clip-rule="nonzero"/></clipPath><clipPath id="07cad6a1f5"><path d="M 29.886719 34.046875 L 29.886719 46.414062 L 20.53125 46.414062 L 20.53125 28.429688 L 26.941406 28.429688 L 26.828125 29.109375 L 20.917969 32.675781 L 24.007812 37.625 Z M 29.886719 34.046875 " clip-rule="nonzero"/></clipPath><clipPath id="332f5164c7"><path d="M 3.328125 8.300781 L 55.355469 8.300781 L 55.355469 66.75 L 3.328125 66.75 Z M 3.328125 8.300781 " clip-rule="nonzero"/></clipPath><clipPath id="ed6c200fc3"><path d="M 51.386719 51.714844 L 32.027344 62.890625 L 39.054688 46.835938 C 39.203125 46.664062 39.34375 46.488281 39.472656 46.296875 C 40.015625 45.496094 40.335938 44.515625 40.335938 43.476562 L 40.335938 34.667969 L 51.960938 51.261719 C 51.792969 51.4375 51.601562 51.59375 51.386719 51.714844 M 7.234375 51.714844 C 6.445312 51.261719 5.960938 50.421875 5.960938 49.511719 L 5.960938 27.429688 L 18.941406 45.957031 C 19.324219 46.640625 19.863281 47.226562 20.511719 47.660156 C 21.3125 48.207031 22.292969 48.527344 23.332031 48.527344 L 35.289062 48.527344 C 35.339844 48.527344 35.390625 48.523438 35.441406 48.519531 L 28.675781 63.988281 C 28.453125 63.929688 28.242188 63.84375 28.039062 63.726562 Z M 7.234375 23.285156 L 26.5 12.164062 L 19.421875 28.339844 C 19.324219 28.457031 19.234375 28.574219 19.148438 28.699219 C 18.605469 29.503906 18.285156 30.484375 18.285156 31.523438 L 18.285156 40.4375 L 6.621094 23.785156 C 6.796875 23.589844 7.003906 23.421875 7.234375 23.285156 M 37.703125 31.523438 L 37.703125 43.476562 C 37.703125 43.8125 37.632812 44.128906 37.511719 44.417969 C 37.332031 44.847656 37.023438 45.21875 36.636719 45.480469 C 36.25 45.742188 35.792969 45.890625 35.289062 45.894531 L 23.332031 45.894531 C 22.996094 45.894531 22.683594 45.824219 22.394531 45.703125 C 22.082031 45.570312 21.804688 45.375 21.578125 45.132812 L 21.175781 44.558594 C 21.011719 44.234375 20.917969 43.871094 20.917969 43.476562 L 20.917969 31.523438 C 20.917969 31.1875 20.988281 30.871094 21.109375 30.582031 C 21.289062 30.152344 21.597656 29.777344 21.984375 29.519531 C 22.371094 29.257812 22.828125 29.109375 23.332031 29.105469 L 35.289062 29.105469 C 35.625 29.105469 35.9375 29.175781 36.226562 29.296875 C 36.496094 29.410156 36.742188 29.570312 36.953125 29.769531 L 36.921875 29.792969 L 37.558594 30.703125 C 37.652344 30.957031 37.703125 31.230469 37.703125 31.523438 M 51.390625 23.28125 C 52.175781 23.738281 52.660156 24.578125 52.660156 25.488281 L 52.660156 47.671875 L 39.871094 29.417969 C 39.484375 28.574219 38.871094 27.855469 38.109375 27.339844 C 37.308594 26.796875 36.328125 26.476562 35.289062 26.476562 L 23.332031 26.476562 C 23.257812 26.476562 23.183594 26.480469 23.105469 26.484375 L 29.882812 11 C 30.125 11.058594 30.359375 11.148438 30.582031 11.277344 Z M 52.703125 21.003906 L 31.902344 8.992188 C 31.101562 8.53125 30.203125 8.300781 29.3125 8.300781 C 28.417969 8.300781 27.523438 8.53125 26.722656 8.992188 L 5.917969 21.003906 C 4.316406 21.929688 3.328125 23.640625 3.328125 25.488281 L 3.328125 49.511719 C 3.328125 51.363281 4.316406 53.070312 5.917969 53.996094 L 26.722656 66.007812 C 27.523438 66.46875 28.417969 66.703125 29.3125 66.703125 C 30.203125 66.703125 31.097656 66.46875 31.898438 66.007812 L 52.703125 53.996094 C 54.304688 53.070312 55.289062 51.363281 55.289062 49.511719 L 55.289062 25.488281 C 55.289062 23.640625 54.304688 21.929688 52.703125 21.003906 " clip-rule="nonzero"/></clipPath></defs><g clip-path="url(#1c7e29eaf9)"><g clip-path="url(#07cad6a1f5)"><path fill="#ffffff" d="M 2.546875 7.515625 L 56.136719 7.515625 L 56.136719 67.535156 L 2.546875 67.535156 Z M 2.546875 7.515625 " fill-opacity="1" fill-rule="nonzero"/></g></g><g clip-path="url(#332f5164c7)"><g clip-path="url(#ed6c200fc3)"><path fill="#ffffff" d="M 2.546875 7.515625 L 56.136719 7.515625 L 56.136719 67.535156 L 2.546875 67.535156 Z M 2.546875 7.515625 " fill-opacity="1" fill-rule="nonzero"/></g></g><g fill="#ffffff" fill-opacity="1"><g transform="translate(65.618762, 47.244795)"><g><path d="M 2.046875 0 L 2.046875 -22.546875 L 7.9375 -22.546875 L 7.9375 -4.765625 L 17.53125 -4.765625 L 17.53125 0 Z M 2.046875 0 "/></g></g></g><g fill="#ffffff" fill-opacity="1"><g transform="translate(83.268846, 47.244795)"><g><path d="M 2.046875 0 L 2.046875 -22.546875 L 18.078125 -22.546875 L 18.078125 -18 L 7.765625 -18 L 7.765625 -13.71875 L 17.4375 -13.71875 L 17.4375 -9.21875 L 7.765625 -9.21875 L 7.765625 -4.546875 L 18.078125 -4.546875 L 18.078125 0 Z M 2.046875 0 "/></g></g></g><g fill="#ffffff" fill-opacity="1"><g transform="translate(101.718308, 47.244795)"><g><path d="M 16.65625 -22.546875 L 22.171875 -22.546875 L 22.171875 0 L 17.8125 0 L 7.515625 -12.890625 L 7.515625 0 L 2.046875 0 L 2.046875 -22.546875 L 6.328125 -22.546875 L 16.65625 -9.65625 Z M 16.65625 -22.546875 "/></g></g></g><g fill="#ffffff" fill-opacity="1"><g transform="translate(125.283775, 47.244795)"><g><path d="M 10.203125 0.28125 C 8.515625 0.28125 6.847656 0.0546875 5.203125 -0.390625 C 3.566406 -0.835938 2.238281 -1.429688 1.21875 -2.171875 L 3.03125 -6.328125 C 4.125 -5.648438 5.285156 -5.128906 6.515625 -4.765625 C 7.753906 -4.398438 9.003906 -4.21875 10.265625 -4.21875 C 11.546875 -4.21875 12.519531 -4.394531 13.1875 -4.75 C 13.863281 -5.101562 14.203125 -5.597656 14.203125 -6.234375 C 14.203125 -6.804688 13.894531 -7.273438 13.28125 -7.640625 C 12.675781 -8.003906 11.519531 -8.367188 9.8125 -8.734375 C 7.707031 -9.179688 6.054688 -9.710938 4.859375 -10.328125 C 3.671875 -10.953125 2.832031 -11.675781 2.34375 -12.5 C 1.863281 -13.332031 1.625 -14.359375 1.625 -15.578125 C 1.625 -16.960938 2.015625 -18.203125 2.796875 -19.296875 C 3.578125 -20.398438 4.675781 -21.265625 6.09375 -21.890625 C 7.507812 -22.523438 9.132812 -22.84375 10.96875 -22.84375 C 12.59375 -22.84375 14.164062 -22.613281 15.6875 -22.15625 C 17.207031 -21.695312 18.394531 -21.101562 19.25 -20.375 L 17.46875 -16.21875 C 15.414062 -17.625 13.257812 -18.328125 11 -18.328125 C 9.914062 -18.328125 9.039062 -18.117188 8.375 -17.703125 C 7.71875 -17.285156 7.390625 -16.738281 7.390625 -16.0625 C 7.390625 -15.65625 7.503906 -15.320312 7.734375 -15.0625 C 7.972656 -14.8125 8.410156 -14.5625 9.046875 -14.3125 C 9.691406 -14.0625 10.640625 -13.8125 11.890625 -13.5625 C 13.941406 -13.113281 15.550781 -12.570312 16.71875 -11.9375 C 17.894531 -11.3125 18.726562 -10.582031 19.21875 -9.75 C 19.707031 -8.925781 19.953125 -7.9375 19.953125 -6.78125 C 19.953125 -4.5625 19.097656 -2.828125 17.390625 -1.578125 C 15.691406 -0.335938 13.296875 0.28125 10.203125 0.28125 Z M 10.203125 0.28125 "/></g></g></g><g fill="#ffffff" fill-opacity="1"><g transform="translate(150.734079, 47.244795)"><g><path d="M 11.890625 0.28125 C 8.628906 0.28125 6.148438 -0.546875 4.453125 -2.203125 C 2.765625 -3.867188 1.921875 -6.300781 1.921875 -9.5 L 1.921875 -22.546875 L 7.671875 -22.546875 L 7.671875 -9.28125 C 7.671875 -7.65625 8.03125 -6.40625 8.75 -5.53125 C 9.476562 -4.65625 10.523438 -4.21875 11.890625 -4.21875 C 13.253906 -4.21875 14.300781 -4.65625 15.03125 -5.53125 C 15.757812 -6.40625 16.125 -7.65625 16.125 -9.28125 L 16.125 -22.546875 L 21.90625 -22.546875 L 21.90625 -9.5 C 21.90625 -6.320312 21.046875 -3.894531 19.328125 -2.21875 C 17.617188 -0.550781 15.140625 0.28125 11.890625 0.28125 Z M 11.890625 0.28125 "/></g></g></g><g fill="#ffffff" fill-opacity="1"><g transform="translate(173.915848, 47.244795)"><g><path d="M 16.65625 -22.546875 L 22.171875 -22.546875 L 22.171875 0 L 17.8125 0 L 7.515625 -12.890625 L 7.515625 0 L 2.046875 0 L 2.046875 -22.546875 L 6.328125 -22.546875 L 16.65625 -9.65625 Z M 16.65625 -22.546875 "/></g></g></g><g fill="#ffffff" fill-opacity="1"><g transform="translate(197.481316, 47.244795)"><g><path d="M 12.765625 0.28125 C 10.460938 0.28125 8.460938 -0.191406 6.765625 -1.140625 C 5.066406 -2.085938 3.757812 -3.425781 2.84375 -5.15625 C 1.925781 -6.894531 1.46875 -8.941406 1.46875 -11.296875 C 1.46875 -13.640625 1.925781 -15.675781 2.84375 -17.40625 C 3.757812 -19.144531 5.066406 -20.484375 6.765625 -21.421875 C 8.460938 -22.367188 10.460938 -22.84375 12.765625 -22.84375 C 15.066406 -22.84375 17.0625 -22.367188 18.75 -21.421875 C 20.445312 -20.484375 21.75 -19.144531 22.65625 -17.40625 C 23.5625 -15.675781 24.015625 -13.640625 24.015625 -11.296875 C 24.015625 -8.941406 23.554688 -6.894531 22.640625 -5.15625 C 21.722656 -3.425781 20.414062 -2.085938 18.71875 -1.140625 C 17.03125 -0.191406 15.046875 0.28125 12.765625 0.28125 Z M 12.765625 -4.21875 C 14.472656 -4.21875 15.804688 -4.820312 16.765625 -6.03125 C 17.722656 -7.238281 18.203125 -8.992188 18.203125 -11.296875 C 18.203125 -13.597656 17.710938 -15.34375 16.734375 -16.53125 C 15.765625 -17.726562 14.441406 -18.328125 12.765625 -18.328125 C 11.054688 -18.328125 9.722656 -17.734375 8.765625 -16.546875 C 7.804688 -15.367188 7.328125 -13.617188 7.328125 -11.296875 C 7.328125 -8.960938 7.804688 -7.195312 8.765625 -6 C 9.722656 -4.8125 11.054688 -4.21875 12.765625 -4.21875 Z M 12.765625 -4.21875 "/></g></g></g></svg>